<?xml version="1.0" encoding="utf-8"?>
<!-- Generator: Adobe Illustrator 16.0.0, SVG Export Plug-In . SVG Version: 6.00 Build 0)  -->
<!DOCTYPE svg PUBLIC "-//W3C//DTD SVG 1.1//EN" "http://www.w3.org/Graphics/SVG/1.1/DTD/svg11.dtd">
<svg version="1.1" id="Layer_1" xmlns="http://www.w3.org/2000/svg" xmlns:xlink="http://www.w3.org/1999/xlink" x="0px" y="0px"
	 width="280px" height="140px" viewBox="0 0 280 140" style="enable-background:new 0 0 280 140;" xml:space="preserve">
<style type="text/css">
<![CDATA[
	.st0{fill:#28334C;}
	.st1{opacity:0.6;}
	.st2{fill:#323232;}
]]>
</style>
<g>
	<path class="st0" d="M61.32,48.37c7.44-0.66,9.58-5.44,18.23-6.2c4.25-0.37,6.96,0.48,7.27,1.96c0.3,1.41-1.88,2.31-4.41,2.54
		c-3.49,0.31-5.05-0.96-5.3-2.15c-2.62,0.3-3.09,1.46-2.93,2.23c0.32,1.54,3.52,2.98,8.98,2.5c6.18-0.54,8.25-2.92,7.72-5.43
		c-0.67-3.19-5.46-5.81-13.96-5.06c-10.93,0.96-10.9,6-18.34,6.66c-3.04,0.27-4.78-0.41-5.03-1.62c-0.26-1.21,1.27-1.77,3.05-1.93
		c1.67-0.15,3.63,0.08,4.56,0.61c0.7-0.36,0.93-0.71,0.85-1.11c-0.23-1.1-2.56-1.61-5.49-1.35c-5.57,0.49-5.54,3.04-5.33,4.07
		C51.78,46.93,56.05,48.84,61.32,48.37z"/>
	<path class="st0" d="M46.1,55.25c6.8,1.75,15.58,2.63,26.11,2.63c10.75,0,19.31-0.88,26.11-2.63c7.24-1.76,10.75-3.95,10.75-6.15
		c0-1.53-1.54-3.07-4.39-4.17c0.66,0.44,1.1,1.1,1.1,1.97c0,2.19-3.29,3.95-9.87,5.49c-6.14,1.32-14.04,2.19-23.48,2.19
		c-9.22,0-17.33-0.88-23.26-2.19c-6.36-1.53-9.66-3.29-9.66-5.49c0-0.88,0.44-1.75,1.75-2.63c-3.95,1.53-6.14,2.85-6.14,4.83
		C35.35,51.3,38.86,53.5,46.1,55.25z"/>
	<path class="st0" d="M98.54,60.74c-6.8,1.53-15.58,2.63-26.11,2.63c-10.75,0-19.53-1.1-26.33-2.63c-6.14-1.54-9.43-3.29-10.53-5.05
		c0.57,4.01,1.57,7.89,2.89,11.6c-1.54,0.92-2.94,2.15-4.2,3.76c-2.41,3.07-3.51,6.58-3.29,10.09c0.22,3.51,1.97,6.36,4.61,8.56
		c2.85,2.19,5.92,2.85,9.43,2.19c1.32-0.22,2.85-0.88,4.17-1.32c-2.85,0-5.27-0.88-7.68-2.85c-2.63-1.98-4.39-4.61-4.83-7.9
		c-0.66-3.07,0-5.92,1.75-8.34c0.37-0.45,0.78-0.83,1.18-1.21c0.96,2.32,2.02,4.56,3.2,6.7c2.63,3.95,5.27,7.46,7.9,11.19
		c1.1,2.19,1.97,4.39,2.41,6.58c1.75,2.41,4.17,3.95,7.24,4.83c3.73,1.32,7.68,1.97,11.63,1.76h0.44c3.95,0.22,8.12-0.44,12.07-1.76
		c2.85-0.88,5.27-2.41,7.02-4.83h0.22c0.44-2.19,1.1-4.39,2.19-6.58c2.63-3.73,5.27-7.24,7.9-11.19c3.51-6.36,5.92-13.6,7.24-21.28
		C107.75,57.67,104.46,59.42,98.54,60.74z"/>
</g>
<g class="st1">
	<path class="st2" d="M201.32,48.37c7.44-0.66,9.58-5.44,18.23-6.2c4.25-0.37,6.96,0.48,7.27,1.96c0.3,1.41-1.88,2.31-4.41,2.54
		c-3.49,0.31-5.05-0.96-5.3-2.15c-2.62,0.3-3.09,1.46-2.93,2.23c0.32,1.54,3.52,2.98,8.98,2.5c6.18-0.54,8.25-2.92,7.72-5.43
		c-0.67-3.19-5.46-5.81-13.96-5.06c-10.93,0.96-10.9,6-18.34,6.66c-3.04,0.27-4.78-0.41-5.03-1.62c-0.26-1.21,1.27-1.77,3.05-1.93
		c1.67-0.15,3.63,0.08,4.56,0.61c0.7-0.36,0.93-0.71,0.85-1.11c-0.23-1.1-2.56-1.61-5.49-1.35c-5.57,0.49-5.54,3.04-5.33,4.07
		C191.78,46.93,196.05,48.84,201.32,48.37z"/>
	<path class="st2" d="M186.1,55.25c6.8,1.75,15.58,2.63,26.11,2.63c10.75,0,19.31-0.88,26.11-2.63c7.24-1.76,10.75-3.95,10.75-6.15
		c0-1.53-1.54-3.07-4.39-4.17c0.66,0.44,1.1,1.1,1.1,1.97c0,2.19-3.29,3.95-9.87,5.49c-6.14,1.32-14.04,2.19-23.48,2.19
		c-9.22,0-17.33-0.88-23.26-2.19c-6.36-1.53-9.66-3.29-9.66-5.49c0-0.88,0.44-1.75,1.75-2.63c-3.95,1.53-6.14,2.85-6.14,4.83
		C175.35,51.3,178.86,53.5,186.1,55.25z"/>
	<path class="st2" d="M238.54,60.74c-6.8,1.53-15.58,2.63-26.11,2.63c-10.75,0-19.53-1.1-26.33-2.63
		c-6.14-1.54-9.43-3.29-10.53-5.05c0.57,4.01,1.57,7.89,2.89,11.6c-1.54,0.92-2.94,2.15-4.2,3.76c-2.41,3.07-3.51,6.58-3.29,10.09
		c0.22,3.51,1.97,6.36,4.61,8.56c2.85,2.19,5.92,2.85,9.43,2.19c1.32-0.22,2.85-0.88,4.17-1.32c-2.85,0-5.27-0.88-7.68-2.85
		c-2.63-1.98-4.39-4.61-4.83-7.9c-0.66-3.07,0-5.92,1.75-8.34c0.37-0.45,0.78-0.83,1.18-1.21c0.96,2.32,2.03,4.56,3.2,6.7
		c2.63,3.95,5.27,7.46,7.9,11.19c1.1,2.19,1.97,4.39,2.41,6.58c1.75,2.41,4.17,3.95,7.24,4.83c3.73,1.32,7.68,1.97,11.63,1.76h0.44
		c3.95,0.22,8.12-0.44,12.07-1.76c2.85-0.88,5.27-2.41,7.02-4.83h0.22c0.44-2.19,1.1-4.39,2.19-6.58c2.63-3.73,5.27-7.24,7.9-11.19
		c3.51-6.36,5.92-13.6,7.24-21.28C247.75,57.67,244.46,59.42,238.54,60.74z"/>
</g>
<g>
</g>
<g>
</g>
<g>
</g>
<g>
</g>
<g>
</g>
<g>
</g>
<g>
</g>
<g>
</g>
<g>
</g>
<g>
</g>
<g>
</g>
<g>
</g>
<g>
</g>
<g>
</g>
<g>
</g>
<g>
</g>
<g>
</g>
<g>
</g>
</svg>
