<?xml version="1.0" encoding="utf-8"?>
<!-- Generator: Adobe Illustrator 15.0.0, SVG Export Plug-In . SVG Version: 6.00 Build 0)  -->
<!DOCTYPE svg PUBLIC "-//W3C//DTD SVG 1.1//EN" "http://www.w3.org/Graphics/SVG/1.1/DTD/svg11.dtd">
<svg version="1.1" id="Layer_1" xmlns="http://www.w3.org/2000/svg" xmlns:xlink="http://www.w3.org/1999/xlink" x="0px" y="0px"
	 width="280px" height="140px" viewBox="0 0 280 140" style="enable-background:new 0 0 280 140;" xml:space="preserve">
<style type="text/css">
<![CDATA[
	.st0{fill:#E44D26;}
	.st1{fill:#888888;}
	.st2{fill:#EBEBEB;}
	.st3{fill:#F16529;}
	.st4{opacity:0.5;}
	.st5{fill:#FFFFFF;}
	.st6{fill:#767676;}
]]>
</style>
<g>
	<polygon class="st0" points="37.9,116.49 30.76,36.38 109.24,36.38 102.09,116.48 69.95,125.39 	"/>
	<polygon class="st3" points="70,118.58 95.97,111.38 102.08,42.93 70,42.93 	"/>
	<polygon class="st2" points="70,72.64 57,72.64 56.1,62.58 70,62.58 70,52.76 69.97,52.76 45.36,52.76 45.6,55.39 48.01,82.47 
		70,82.47 	"/>
	<polygon class="st2" points="70,98.16 69.96,98.17 59.02,95.22 58.32,87.38 53,87.38 48.45,87.38 49.83,102.81 69.96,108.39 
		70,108.38 	"/>
	<path d="M38.06,14.61h4.99v4.93h4.57v-4.93h4.99v14.94h-4.99v-5h-4.57v5h-4.99V14.61L38.06,14.61z"/>
	<path d="M59.18,19.57h-4.4v-4.95h13.79v4.95h-4.4v9.98h-4.99V19.57L59.18,19.57z"/>
	<path d="M70.76,14.61h5.21l3.2,5.25l3.2-5.25h5.21v14.94H82.6v-7.4l-3.44,5.31h-0.09l-3.44-5.31v7.4h-4.88V14.61z"/>
	<path d="M90.06,14.61h4.99v10h7.02v4.94H90.06V14.61z"/>
	<polygon class="st5" points="69.97,72.64 69.97,82.47 82.06,82.47 80.92,95.21 69.97,98.17 69.97,108.39 90.11,102.81 
		90.25,101.15 92.56,75.28 92.8,72.64 90.16,72.64 	"/>
	<polygon class="st5" points="69.97,52.76 69.97,58.86 69.97,62.56 69.97,62.58 93.67,62.58 93.67,62.58 93.7,62.58 93.89,60.37 
		94.34,55.39 94.58,52.76 	"/>
</g>
<g class="st4">
	<polygon class="st6" points="177.9,116.49 170.76,36.38 249.24,36.38 242.09,116.48 209.95,125.39 	"/>
	<polygon class="st1" points="210,118.58 235.97,111.38 242.08,42.93 210,42.93 	"/>
	<polygon class="st2" points="210,72.64 197,72.64 196.1,62.58 210,62.58 210,52.76 209.97,52.76 185.36,52.76 185.6,55.39 
		188.01,82.47 210,82.47 	"/>
	<polygon class="st2" points="210,98.16 209.96,98.17 199.02,95.22 198.32,87.38 193,87.38 188.45,87.38 189.83,102.81 
		209.96,108.39 210,108.38 	"/>
	<path d="M178.06,14.61h4.99v4.93h4.57v-4.93h4.99v14.94h-4.99v-5h-4.57v5h-4.99V14.61L178.06,14.61z"/>
	<path d="M199.18,19.57h-4.4v-4.95h13.79v4.95h-4.4v9.98h-4.99V19.57L199.18,19.57z"/>
	<path d="M210.76,14.61h5.21l3.2,5.25l3.2-5.25h5.21v14.94h-4.97v-7.4l-3.44,5.31h-0.09l-3.44-5.31v7.4h-4.88V14.61z"/>
	<path d="M230.06,14.61h4.99v10h7.02v4.94h-12.02V14.61z"/>
	<polygon class="st5" points="209.97,72.64 209.97,82.47 222.06,82.47 220.92,95.21 209.97,98.17 209.97,108.39 230.11,102.81 
		230.25,101.15 232.56,75.28 232.8,72.64 230.16,72.64 	"/>
	<polygon class="st5" points="209.97,52.76 209.97,58.86 209.97,62.56 209.97,62.58 233.67,62.58 233.67,62.58 233.7,62.58 
		233.89,60.37 234.34,55.39 234.58,52.76 	"/>
</g>
</svg>
