<?xml version="1.0" encoding="utf-8"?>
<!-- Generator: Adobe Illustrator 16.0.4, SVG Export Plug-In . SVG Version: 6.00 Build 0)  -->
<!DOCTYPE svg PUBLIC "-//W3C//DTD SVG 1.1//EN" "http://www.w3.org/Graphics/SVG/1.1/DTD/svg11.dtd">
<svg version="1.1" id="レイヤー_1" xmlns="http://www.w3.org/2000/svg" xmlns:xlink="http://www.w3.org/1999/xlink" x="0px"
	 y="0px" width="359.214px" height="456.801px" viewBox="0 0 359.214 456.801" enable-background="new 0 0 359.214 456.801"
	 xml:space="preserve">
<g>
	<rect x="51.416" y="383.251" fill="#FFFFFF" width="16.32" height="13.366"/>
	<path fill="#FFFFFF" d="M51.591,0C23.134,0,0,23.039,0,51.59v405.211h307.624c28.454,0,51.591-23.038,51.591-51.59V0H51.591z
		 M300.259,49.173l17.372,12.437l-0.663,5.984L300.259,57.24V49.173z M243.774,32.281l3.896,13l-18.6-0.376L223.09,30.57
		L243.774,32.281z M172.589,40.536l12.14,15.947L169.64,66.17l-11.974-13.028l-2.271-2.446L172.589,40.536z M107.365,89.803
		l19.081,14.049l-11.393,17.002l-20.886-13.107L107.365,89.803z M58.954,166.976l23.821,10.357l-7.497,22.309l-24.399-9.12
		L58.954,166.976z M30.507,262.445l27.88,4.927l-6.43,27.13l-29.012-3.319L30.507,262.445z M65.946,431.014l-14.527-19.307v19.307
		H33.516V364.69c0,0,24.345,0,35.068,0c10.728,0,16.666,10.66,16.666,16.501v11.059c0,13.512-14.592,16.451-14.592,16.451
		l16.834,22.313H65.946z M155.754,430.786H137.84v-12.967h-15.919v12.967h-17.597c0,0,0-39.297,0-49.105s8.481-17.311,16.68-17.311
		H137.3c9.711,0,18.454,7.502,18.454,17.154C155.754,391.173,155.754,430.786,155.754,430.786z M192.608,430.978h-17.742v-66.449
		h17.742V430.978z M256.268,430.978h-44.39v-66.449h17.854v48.597h26.535V430.978z M212.446,232.112l2.38,15.933l-22.4-10.189
		l-0.33-16.658L212.446,232.112z M196.973,181.221l4.23-14.579l14.91,15.093l-3.849,13.543L196.973,181.221z M226.97,295.569
		l7.031,17.041l-26.152-2.282l-6.833-19.656L226.97,295.569z M216.625,130.716l8.446-10.011l9.979,15.424l-7.031,10.213
		L216.625,130.716z M256.218,113.725l-5.595-13.339l12.091-4.549l3.75,12.39L256.218,113.725z M318.348,414.844
		c0,8.775-8.739,15.988-18.276,15.988c-9.64,0-32.277,0-32.277,0v-16.7h32.658v-8.066c0,0-7.505,0-16.096,0
		c-8.492,0-17.745-7.172-17.745-17.373v-7.026c0-8.548,7.346-16.991,18.036-16.991c10.581,0,30.374,0,30.374,0v16.469H284.69v7.213
		c0,0,9.442,0,17.331,0c7.879,0,16.327,7.019,16.327,17.709V414.844z M298.546,93.36l13.292,2.758l-0.138,5.836l-12.676-0.569
		L298.546,93.36z M333.584,100.533c-46.798-27.345-96.934-23.001-130.492,41.761c-23.145,44.575-27.029,110.349,6.535,197.521
		H59.616C75.279,107.178,184.882,49.143,246.086,52.12c39.772,1.932,64.715,13.856,91.384,39.486
		C337.47,91.606,335.194,96.639,333.584,100.533z"/>
	<rect x="122.264" y="383.253" fill="#FFFFFF" width="15.935" height="17.77"/>
</g>
</svg>
