<?xml version="1.0" encoding="utf-8"?>
<!-- Generator: Adobe Illustrator 16.0.4, SVG Export Plug-In . SVG Version: 6.00 Build 0)  -->
<!DOCTYPE svg PUBLIC "-//W3C//DTD SVG 1.1//EN" "http://www.w3.org/Graphics/SVG/1.1/DTD/svg11.dtd">
<svg version="1.1" id="Layer_1" xmlns="http://www.w3.org/2000/svg" xmlns:xlink="http://www.w3.org/1999/xlink" x="0px" y="0px"
	 width="300px" height="379.947px" viewBox="0 0 300 379.947" enable-background="new 0 0 300 379.947" xml:space="preserve">
<path fill="#FFFFFF" d="M162.416,195.699l20.891,9.573l-2.125-14.888l-19.057-10.246L162.416,195.699z M3.956,245.568l27.206,3.098
	l5.933-25.284l-26.048-4.625L3.956,245.568z M100.722,70.469l-17.79-13.161l-12.38,16.831l19.533,12.189L100.722,70.469z
	 M155.262,26.171l-11.408-14.888l-16.05,9.474l13.343,14.514L155.262,26.171z M214.053,15.725l-3.67-12.172L191.045,2l5.605,13.343
	L214.053,15.725z M279.434,31.012l-16.242-11.608v7.54l15.66,9.682L279.434,31.012z M59.912,139.129l-22.24-9.674L30.127,151.5
	l22.826,8.511L59.912,139.129z M170.645,129.156l-3.969,13.643l14.314,13.16l3.578-12.679L170.645,129.156z M262.029,68.152
	l11.891,0.581l0.1-5.521l-12.381-2.516L262.029,68.152z M212.576,22.119C155.365,19.337,52.953,73.558,38.248,291.078h140.283
	c-31.456-81.488-27.807-142.974-6.178-184.64c31.453-60.598,78.268-64.608,121.977-39.067c1.545-3.67,3.67-8.32,3.67-8.32
	C273.057,35.072,249.707,23.92,212.576,22.119z M216.777,67.272l5.215,12.471l9.672-5.214l-3.578-11.509L216.777,67.272z
	 M185.051,95.603l10.637,14.614l6.576-9.574l-9.283-14.414L185.051,95.603z M201.299,265.621l-6.576-15.959l-24.277-4.542
	l6.393,18.366L201.299,265.621z"/>
<path fill="#FFFFFF" d="M62.232,340.085v-10.347c0-5.521-5.505-15.436-15.568-15.436c-10.056,0-32.781,0-32.781,0v62.018h16.764
	v-18.06l13.539,18.06h20.114l-15.734-20.899C48.565,355.421,62.232,352.723,62.232,340.085z M45.734,343.174h-15.22V330.66h15.22
	V343.174z M110.848,314.029h-15.22c-7.606,0-15.598,6.975-15.598,16.125s0,45.892,0,45.892h16.499v-12.106h14.83v12.106h16.768
	c0,0,0-36.999,0-46.017C128.127,321.004,120.002,314.029,110.848,314.029z M111.359,347.301h-14.83v-16.632h14.83V347.301z
	 M264.836,336.406c-7.355,0-16.15,0-16.15,0v-6.768h28.332v-15.377c0,0-18.475,0-28.432,0c-9.963,0-16.83,7.921-16.83,15.859v6.576
	c0,9.573,8.611,16.249,16.641,16.249c8.02,0,14.986,0,14.986,0v7.54h-30.555v15.66c0,0,21.172,0,30.164,0
	c8.994,0,17.123-6.768,17.123-14.979v-8.221C280.115,342.975,272.186,336.406,264.836,336.406z M197.23,314.162h-16.623v62.084
	h41.484v-16.641H197.23V314.162z M145.983,376.246h16.632v-62.084h-16.632V376.246z"/>
</svg>
